<svg width="24" height="16" viewBox="0 0 24 16" fill="none" xmlns="http://www.w3.org/2000/svg">
<path fill-rule="evenodd" clip-rule="evenodd" d="M23.8216 4.00475C23.8259 4.43929 22.68 4.79657 22.2407 4.79315C22.2089 4.79154 22.1771 4.78993 22.1329 4.78138L21.3642 4.72348L19.9178 7.53928C19.8692 7.65641 19.841 7.73681 19.7263 7.73729L19.3313 7.74241C19.0702 7.74175 19.0973 7.69277 19.1277 7.54954L19.6848 5.04109L19.6737 4.61879L19.2798 4.59249C18.8019 4.59971 18.2136 4.48172 17.74 4.36326L17.0756 5.35556C16.9681 5.52005 16.9988 5.55309 16.8841 5.55356C16.623 5.5529 16.6684 5.53002 16.6805 5.36068L16.861 4.18016C16.8564 4.12957 16.871 4.07366 16.9039 4.04386C16.8982 4.02469 16.8732 4.01083 16.88 3.99858C16.8742 3.97941 16.9003 3.96185 16.9332 3.93204C16.8832 3.90433 16.866 3.84681 16.8614 3.79621L16.6468 2.62082C16.6272 2.44987 16.5897 2.42908 16.8383 2.42282C16.953 2.42234 16.9326 2.45908 17.0419 2.61569L17.7522 3.63371C18.2151 3.50614 18.7916 3.40951 19.2627 3.41454L19.652 3.39024L19.641 2.96794L19.0072 0.455695C18.974 0.309233 18.9376 0.257027 19.1987 0.257692L19.5937 0.252566C19.7084 0.252091 19.7312 0.328786 19.7905 0.457688L21.3376 3.26808L22.1037 3.21255C22.148 3.22109 22.1866 3.21046 22.2184 3.21207C22.6577 3.21549 23.8174 3.5702 23.8216 4.00475ZM0.176011 11.7462C0.18693 11.3118 1.34454 10.9947 1.78348 11.0135C1.81519 11.0162 1.84691 11.0189 1.89087 11.029L2.65702 11.1137L4.20084 8.35009C4.25348 8.23472 4.28449 8.15536 4.39909 8.15889L4.79407 8.16755C5.05498 8.17733 5.02614 8.22533 4.99079 8.36741L4.34654 10.8549L4.34283 11.2773L4.73563 11.3173C5.21349 11.3268 5.79727 11.4653 6.26645 11.6002L6.9651 10.6317C7.0783 10.471 7.04876 10.4369 7.16336 10.4405C7.42427 10.4502 7.37814 10.4715 7.36008 10.6403L7.13852 11.8138C7.14139 11.8646 7.1248 11.9199 7.09091 11.9486C7.09595 11.9679 7.12046 11.9826 7.11325 11.9946C7.11829 12.014 7.09161 12.0307 7.05773 12.0593C7.10674 12.0887 7.12186 12.1468 7.12473 12.1975L7.29814 13.3797C7.31179 13.5512 7.34854 13.5733 7.09988 13.5709C6.98528 13.5674 7.00692 13.5314 6.90317 13.371L6.22879 12.3289C5.76171 12.4402 5.18221 12.5167 4.71156 12.4952L4.32162 12.5059L4.31792 12.9283L4.86363 15.4611C4.8917 15.6087 4.92628 15.6621 4.66537 15.6523L4.2704 15.6437C4.1558 15.6401 4.13564 15.5627 4.08089 15.4318L2.63287 12.5691L1.86526 12.5979C1.82129 12.5878 1.78237 12.5971 1.75066 12.5944C1.31172 12.5756 0.165093 12.1807 0.176011 11.7462ZM1.99999 4.99997C1.44771 4.99997 0.999994 4.55226 0.999994 3.99997C0.999994 3.44769 1.44771 2.99997 1.99999 2.99997C2.55228 2.99997 2.99999 3.44769 2.99999 3.99997C2.99999 4.55226 2.55228 4.99997 1.99999 4.99997ZM3.99999 4.24997C3.86192 4.24997 3.74999 4.13804 3.74999 3.99997C3.74999 3.8619 3.86192 3.74997 3.99999 3.74997H4.99999C5.13807 3.74997 5.24999 3.8619 5.24999 3.99997C5.24999 4.13804 5.13807 4.24997 4.99999 4.24997H3.99999ZM6.49999 4.24997C6.36192 4.24997 6.24999 4.13804 6.24999 3.99997C6.24999 3.8619 6.36192 3.74997 6.49999 3.74997H7.49999C7.63807 3.74997 7.74999 3.8619 7.74999 3.99997C7.74999 4.13804 7.63807 4.24997 7.49999 4.24997H6.49999ZM8.99999 4.24997C8.86192 4.24997 8.74999 4.13804 8.74999 3.99997C8.74999 3.8619 8.86192 3.74997 8.99999 3.74997H9.99999C10.1381 3.74997 10.25 3.8619 10.25 3.99997C10.25 4.13804 10.1381 4.24997 9.99999 4.24997H8.99999ZM11.5 4.24997C11.3619 4.24997 11.25 4.13804 11.25 3.99997C11.25 3.8619 11.3619 3.74997 11.5 3.74997H12.5C12.6381 3.74997 12.75 3.8619 12.75 3.99997C12.75 4.13804 12.6381 4.24997 12.5 4.24997H11.5ZM14 4.24997C13.8619 4.24997 13.75 4.13804 13.75 3.99997C13.75 3.8619 13.8619 3.74997 14 3.74997H15C15.1381 3.74997 15.25 3.8619 15.25 3.99997C15.25 4.13804 15.1381 4.24997 15 4.24997H14ZM22 13.0108C21.4477 13.0108 21 12.5631 21 12.0108C21 11.4585 21.4477 11.0108 22 11.0108C22.5523 11.0108 23 11.4585 23 12.0108C23 12.5631 22.5523 13.0108 22 13.0108ZM19.2552 12.2608H18.2552C18.1172 12.2608 18.0052 12.1489 18.0052 12.0108C18.0052 11.8727 18.1172 11.7608 18.2552 11.7608H19.2552C19.3933 11.7608 19.5052 11.8727 19.5052 12.0108C19.5052 12.1489 19.3933 12.2608 19.2552 12.2608ZM16.7552 12.2608H15.7552C15.6172 12.2608 15.5052 12.1489 15.5052 12.0108C15.5052 11.8727 15.6172 11.7608 15.7552 11.7608H16.7552C16.8933 11.7608 17.0052 11.8727 17.0052 12.0108C17.0052 12.1489 16.8933 12.2608 16.7552 12.2608ZM14.2552 12.2608H13.2552C13.1172 12.2608 13.0052 12.1489 13.0052 12.0108C13.0052 11.8727 13.1172 11.7608 13.2552 11.7608H14.2552C14.3933 11.7608 14.5052 11.8727 14.5052 12.0108C14.5052 12.1489 14.3933 12.2608 14.2552 12.2608ZM11.7552 12.2608H10.7552C10.6172 12.2608 10.5052 12.1489 10.5052 12.0108C10.5052 11.8727 10.6172 11.7608 10.7552 11.7608H11.7552C11.8933 11.7608 12.0052 11.8727 12.0052 12.0108C12.0052 12.1489 11.8933 12.2608 11.7552 12.2608ZM9.25524 12.2608H8.25524C8.11716 12.2608 8.00524 12.1489 8.00524 12.0108C8.00524 11.8727 8.11716 11.7608 8.25524 11.7608H9.25524C9.39331 11.7608 9.50524 11.8727 9.50524 12.0108C9.50524 12.1489 9.39331 12.2608 9.25524 12.2608Z" fill="#11397E"/>
</svg>
