<svg width="19" height="18" viewBox="0 0 19 18" fill="none" xmlns="http://www.w3.org/2000/svg">
<path d="M9.5 0C4.5125 0 0.5 4.0125 0.5 9C0.5 13.9875 4.5125 18 9.5 18C14.4875 18 18.5 13.9875 18.5 9C18.5 4.0125 14.4875 0 9.5 0ZM1.625 9C1.625 4.65 5.15 1.125 9.5 1.125C11.45 1.125 13.25 1.8375 14.6375 3.0375L10.925 6.7125L9.6875 4.35C9.6125 4.2 9.575 4.0875 9.425 4.0875H8.9C8.5625 4.0875 8.6 4.1625 8.6375 4.35L9.3875 7.6875V8.25L8.8625 8.2875C8.225 8.2875 7.475 8.4 6.875 8.5875L6.0125 7.275C5.8625 7.05 5.9 7.0125 5.75 7.0125C5.4125 7.0125 5.45 7.05 5.4875 7.275L5.75 8.85C5.75 8.8875 5.75 8.925 5.7875 8.9625C5.75 9 5.7125 9 5.7125 9.0375C5.7125 9.075 5.75 9.1125 5.825 9.15C5.75 9.1875 5.7125 9.2625 5.7125 9.375L5.45 10.95C5.4125 11.175 5.375 11.2125 5.7125 11.2125C5.8625 11.2125 5.825 11.175 5.975 10.95L6.9125 9.5625C7.2125 9.6375 7.5125 9.7125 7.85 9.7875L3.5 14.1C2.3375 12.7125 1.625 10.95 1.625 9ZM9.5 16.875C7.5125 16.875 5.675 16.125 4.2875 14.8875L9.3125 9.9H9.3875V10.4625L8.5625 13.8C8.525 13.9875 8.4875 14.0625 8.825 14.0625H9.35C9.5 14.0625 9.5375 13.95 9.6125 13.8L11.6375 10.125L12.65 10.2H12.8C13.3625 10.2 14.9 9.75 14.9 9.1875C14.9 8.625 13.4 8.1375 12.8 8.1H12.65L11.6375 8.1375L11.45 7.7625L15.425 3.825C16.625 5.2125 17.375 7.0125 17.375 9C17.375 13.35 13.85 16.875 9.5 16.875Z" fill="#D0D9DF"/>
</svg>
