<svg width="24" height="24" viewBox="0 0 24 24" fill="none" xmlns="http://www.w3.org/2000/svg">
<path fill-rule="evenodd" clip-rule="evenodd" d="M9 8.99997C9 8.20432 9.31607 7.44126 9.87868 6.87865C10.4413 6.31604 11.2044 5.99997 12 5.99997C12.7956 5.99997 13.5587 6.31604 14.1213 6.87865C14.6839 7.44126 15 8.20432 15 8.99997C15 9.79562 14.6839 10.5587 14.1213 11.1213C13.5587 11.6839 12.7956 12 12 12C11.2044 12 10.4413 11.6839 9.87868 11.1213C9.31607 10.5587 9 9.79562 9 8.99997ZM15.291 12.764C16.057 12.0943 16.6004 11.2069 16.8488 10.2202C17.0971 9.23353 17.0385 8.19457 16.6809 7.24207C16.3232 6.28957 15.6835 5.46884 14.8471 4.8895C14.0107 4.31015 13.0174 3.99976 12 3.99976C10.9826 3.99976 9.98933 4.31015 9.15293 4.8895C8.31654 5.46884 7.6768 6.28957 7.31913 7.24207C6.96146 8.19457 6.90289 9.23353 7.15123 10.2202C7.39958 11.2069 7.94302 12.0943 8.709 12.764C6.525 13.845 5 15.974 5 18.5C5 18.7652 5.10536 19.0195 5.29289 19.2071C5.48043 19.3946 5.73478 19.5 6 19.5C6.26522 19.5 6.51957 19.3946 6.70711 19.2071C6.89464 19.0195 7 18.7652 7 18.5C7 16.095 9.155 14 12 14C14.845 14 17 16.095 17 18.5C17 18.7652 17.1054 19.0195 17.2929 19.2071C17.4804 19.3946 17.7348 19.5 18 19.5C18.2652 19.5 18.5196 19.3946 18.7071 19.2071C18.8946 19.0195 19 18.7652 19 18.5C19 15.974 17.475 13.845 15.291 12.764Z" fill="white"/>
</svg>
