<svg width="112" height="39" viewBox="0 0 112 39" fill="none" xmlns="http://www.w3.org/2000/svg">
<path d="M34 25.262V22.405L21.25 15.262V7.4049C21.25 6.21921 20.245 3.8335 19 3.8335C17.755 3.8335 16.75 6.21921 16.75 7.4049V15.262L4 22.405V25.262L16.75 21.6907V29.5478L13 31.6907V33.8335L19 32.405L25 33.8335V31.6907L21.25 29.5478V21.6907L34 25.262Z" fill="#11397E"/>
<path d="M1 19.3335C1 9.39705 9.06356 1.3335 19 1.3335C28.9366 1.3335 37 9.39705 37 19.3335C37 29.2701 28.9366 37.3335 19 37.3335C9.06355 37.3335 1 29.2701 1 19.3335Z" stroke="#11397E" stroke-width="2"/>
<path d="M50.7592 14.4404L53.8123 23.2978L53.2537 23.0537L54.4769 23.288L54.4094 24.167H50.3836L50.451 23.2685C50.7335 23.1383 51.0994 23.0276 51.5489 22.9365L51.3563 23.2002L48.7751 15.1044L48.3899 14.4892C48.7302 14.4567 49.1026 14.4372 49.5071 14.4306C49.9181 14.4176 50.3354 14.4209 50.7592 14.4404ZM49.7094 14.499L46.8778 23.2978L46.6562 23.0244L47.889 23.288L47.8216 24.167H44.7589L44.8263 23.3076C44.9483 23.236 45.1088 23.1709 45.3079 23.1123C45.5069 23.0472 45.7252 22.9886 45.9628 22.9365L45.356 23.2978L48.3899 14.4892L49.7094 14.499ZM46.7237 21.5791L47.0415 20.3682H51.6742L52.0016 21.5791H46.7237ZM56.6431 24.0205V14.6357H58.9546V24.0205H56.6431ZM55.7377 24.167L55.8052 23.3076C56.1134 23.1709 56.5147 23.0439 57.0091 22.9267L56.6431 23.9228V22.3896H58.9546V23.9228L58.6175 23.0048L59.8985 23.288L59.831 24.167H55.7377ZM59.8599 14.499L59.7925 15.3584C59.4843 15.4951 59.083 15.622 58.5886 15.7392L58.9546 14.7432V16.2764H56.6431V14.7432L56.9802 15.6611L55.6992 15.3779L55.7667 14.499H59.8599ZM68.0454 24.167L65.0889 20.2021L67.3906 19.5478L70.3184 23.2978L69.4518 23.0048L70.7425 23.249L70.6747 24.167H68.0454ZM65.3971 20.5732C64.7551 20.5732 64.068 20.5342 63.3361 20.456L63.4805 19.2842C64.206 19.3623 64.9027 19.4014 65.5705 19.4014C66.6173 19.4014 67.1407 18.7828 67.1407 17.5459C67.1407 16.361 66.643 15.7685 65.6475 15.7685H63.5287V14.499H65.7342C67.0053 14.499 67.9816 14.7432 68.6621 15.2314C69.3426 15.7132 69.6832 16.4098 69.6832 17.3212C69.6832 18.1156 69.4229 18.7698 68.9028 19.2842C68.3893 19.792 67.6476 20.1208 66.6778 20.2705L66.0716 20.5342C65.9686 20.5472 65.8594 20.557 65.7439 20.5634C65.6283 20.57 65.5127 20.5732 65.3971 20.5732ZM62.4981 24.0205V14.6357H64.8096V24.0205H62.4981ZM61.5928 24.167L61.6602 23.3076C61.9684 23.1709 62.3697 23.0439 62.8641 22.9267L62.4981 23.9228V22.3896H64.8096V23.9228L64.4918 23.0048L65.6765 23.288L65.609 24.167H61.5928ZM65.7149 14.499L65.6475 15.3584C65.3394 15.4951 64.938 15.622 64.4437 15.7392L64.8096 14.7432V16.2764H62.4981V14.7432L62.8352 15.6611L61.5542 15.3779L61.6217 14.499H65.7149ZM74.0069 24.2256L71.5025 15.3584L72.0515 15.6123L70.8286 15.3779L70.8956 14.499H74.9984L74.9313 15.3779C74.6743 15.4951 74.2699 15.6058 73.7176 15.71L73.9293 15.417L75.9426 23.4248L76.222 24.1767C75.9268 24.2093 75.5731 24.2288 75.1621 24.2353C74.7512 24.2484 74.3666 24.2451 74.0069 24.2256ZM76.222 24.1767L74.9984 24.0302L77.2812 14.8212L78.6008 14.831L76.222 24.1767ZM79.5831 24.2256L77.4357 15.4365L77.2812 14.8212C77.6021 14.7887 77.9492 14.7692 78.3214 14.7627C78.6942 14.7496 79.0597 14.7496 79.4194 14.7627L81.4997 23.415L81.7982 24.1767C81.503 24.2093 81.1499 24.2288 80.739 24.2353C80.328 24.2484 79.9427 24.2451 79.5831 24.2256ZM81.7982 24.1767L80.5562 24.0205L82.7805 15.3682L83.0409 15.6416L81.7022 15.3779L81.7693 14.499H84.8897L84.8227 15.3584C84.7004 15.4235 84.5399 15.4886 84.3407 15.5537C84.1481 15.6188 83.9298 15.6774 83.6859 15.7295L84.2737 15.3779L81.7982 24.1767ZM90.8414 14.4404L93.8948 23.2978L93.3359 23.0537L94.5588 23.288L94.4918 24.167H90.4659L90.533 23.2685C90.8157 23.1383 91.1819 23.0276 91.631 22.9365L91.4384 23.2002L88.857 15.1044L88.4718 14.4892C88.8123 14.4567 89.1845 14.4372 89.5895 14.4306C90.0004 14.4176 90.4173 14.4209 90.8414 14.4404ZM89.7913 14.499L86.9602 23.2978L86.7386 23.0244L87.9714 23.288L87.9037 24.167H84.8411L84.9088 23.3076C85.0304 23.236 85.1909 23.1709 85.3901 23.1123C85.5893 23.0472 85.8076 22.9886 86.0449 22.9365L85.4381 23.2978L88.4718 14.4892L89.7913 14.499ZM86.8057 21.5791L87.1239 20.3682H91.7566L92.084 21.5791H86.8057ZM97.7943 20.8076L95.0013 15.3682L95.5885 15.6123L94.3655 15.3779L94.4332 14.499H98.5551L98.488 15.3779C98.2309 15.4951 97.8266 15.6058 97.2743 15.71L97.4478 15.4658L99.7589 20.1338L100.086 20.7588L97.7943 20.8076ZM98.7286 20.749L101.339 15.3682L101.551 15.6416L100.202 15.3779L100.27 14.499H103.428L103.361 15.3584C103.239 15.4235 103.079 15.4886 102.879 15.5537C102.687 15.6188 102.468 15.6774 102.225 15.7295L102.87 15.3682L100.086 20.7588L98.7286 20.749ZM97.7845 24.0205V20.124H100.096V24.0205H97.7845ZM96.7253 24.167L96.793 23.3076C96.979 23.2295 97.1875 23.1611 97.4189 23.1025C97.6563 23.0439 97.9002 22.9951 98.1507 22.956L97.7845 23.9228V22.3896H100.096V23.9228L99.7589 23.0146L101.194 23.288L101.127 24.167H96.7253ZM107.762 24.3232C106.49 24.3232 105.457 24.0302 104.661 23.4443C104.5 22.3831 104.461 21.4814 104.545 20.7392H105.537L106.674 23.1904L105.845 22.5361C106.539 22.9332 107.252 23.1318 107.984 23.1318C108.485 23.1318 108.87 23.0309 109.139 22.8291C109.409 22.6272 109.544 22.3408 109.544 21.9697C109.544 21.6572 109.438 21.4 109.226 21.1982C109.014 20.9899 108.671 20.8108 108.195 20.6611L107.078 20.3096C105.396 19.7822 104.555 18.8122 104.555 17.3994C104.555 16.4684 104.885 15.7262 105.547 15.1728C106.208 14.6194 107.097 14.3428 108.214 14.3428C109.235 14.3428 110.16 14.5576 110.988 14.9873C111.116 15.8727 111.155 16.6767 111.104 17.3994H110.074L109.13 15.4072L110.131 16.1298C109.38 15.7327 108.667 15.5342 107.993 15.5342C107.088 15.5342 106.635 15.8955 106.635 16.6182C106.635 16.9372 106.747 17.2041 106.972 17.4189C107.203 17.6338 107.573 17.8226 108.08 17.9853L109.197 18.3369C110.841 18.8577 111.663 19.805 111.663 21.1787C111.663 22.1422 111.309 22.9072 110.603 23.4736C109.903 24.04 108.956 24.3232 107.762 24.3232Z" fill="#11397E"/>
</svg>
