<svg width="26" height="16" viewBox="0 0 26 16" fill="none" xmlns="http://www.w3.org/2000/svg">
<path d="M16.2982 2.23462H9.68433V13.7655H16.2982V2.23462Z" fill="#FF5F00"/>
<path d="M10.1043 8.00007C10.1032 6.88956 10.3626 5.79337 10.8628 4.7945C11.363 3.79562 12.0908 2.92024 12.9913 2.23462C11.8762 1.38428 10.537 0.855475 9.12683 0.708631C7.71663 0.561786 6.2923 0.802826 5.01664 1.40421C3.74097 2.0056 2.66544 2.94306 1.91297 4.10944C1.16051 5.27582 0.761475 6.62406 0.761475 8.00007C0.761475 9.37607 1.16051 10.7243 1.91297 11.8907C2.66544 13.0571 3.74097 13.9945 5.01664 14.5959C6.2923 15.1973 7.71663 15.4384 9.12683 15.2915C10.537 15.1447 11.8762 14.6159 12.9913 13.7655C12.0908 13.0799 11.363 12.2045 10.8628 11.2056C10.3626 10.2068 10.1032 9.11058 10.1043 8.00007Z" fill="#EB001B"/>
<path d="M25.2207 8.00007C25.2207 9.37605 24.8217 10.7243 24.0693 11.8907C23.3169 13.0571 22.2414 13.9945 20.9657 14.5959C19.6901 15.1973 18.2658 15.4384 16.8556 15.2915C15.4454 15.1447 14.1063 14.6159 12.9913 13.7655C13.8909 13.0792 14.6182 12.2037 15.1183 11.205C15.6184 10.2062 15.8782 9.1104 15.8782 8.00007C15.8782 6.88973 15.6184 5.79389 15.1183 4.79517C14.6182 3.79645 13.8909 2.92093 12.9913 2.23461C14.1063 1.38428 15.4454 0.855471 16.8556 0.708629C18.2658 0.561786 19.6901 0.802837 20.9657 1.40423C22.2414 2.00562 23.3169 2.94308 24.0693 4.10946C24.8217 5.27585 25.2207 6.62408 25.2207 8.00007Z" fill="#F79E1B"/>
<path d="M24.4995 12.5442V12.3081H24.5976V12.26H24.3477V12.3081H24.4459V12.5442H24.4995ZM24.9846 12.5442V12.2595H24.908L24.8199 12.4553L24.7318 12.2595H24.6551V12.5442H24.7092V12.3295L24.7919 12.5146H24.8479L24.9306 12.329V12.5442H24.9846Z" fill="#F79E1B"/>
</svg>
