<svg width="14" height="12" viewBox="0 0 14 12" fill="none" xmlns="http://www.w3.org/2000/svg">
<path d="M9.475 6.85002C8.775 7.37502 7.925 7.67502 7 7.67502C6.075 7.67502 5.225 7.37502 4.525 6.85002C2.175 7.00002 0.325001 8.60003 0.325001 11C0.325001 11 3.225 11.825 7 11.825C10.775 11.825 13.675 11 13.675 11C13.675 8.60003 11.825 7.00002 9.475 6.85002ZM7 6.85002C8.85 6.85002 10.35 5.35002 10.35 3.50002C10.35 3.27502 10.325 3.07502 10.3 2.85002H10.325C10 1.32502 8.65 0.150024 7.025 0.150024C5.775 0.150024 4.625 0.825024 4.1 1.87502C3.825 2.35002 3.675 2.92502 3.675 3.50002C3.65 5.35002 5.15 6.85002 7 6.85002Z" fill="#74767A"/>
</svg>
