<svg width="17" height="16" viewBox="0 0 17 16" fill="none" xmlns="http://www.w3.org/2000/svg">
<rect x="0.133789" width="16" height="16" rx="8" fill="#74767A"/>
<path d="M11.0986 10.7812V12H5.32129V10.957L8.09277 7.96289C8.38184 7.63477 8.61035 7.34961 8.77832 7.10742C8.94629 6.86523 9.06543 6.64648 9.13574 6.45117C9.20996 6.25195 9.24707 6.0625 9.24707 5.88281C9.24707 5.62109 9.2002 5.39258 9.10645 5.19727C9.0127 4.99805 8.87598 4.84375 8.69629 4.73438C8.52051 4.625 8.30371 4.57031 8.0459 4.57031C7.76074 4.57031 7.5166 4.63672 7.31348 4.76953C7.11426 4.89844 6.96191 5.07812 6.85645 5.30859C6.75488 5.53906 6.7041 5.80273 6.7041 6.09961H5.15137C5.15137 5.5957 5.26855 5.13672 5.50293 4.72266C5.7373 4.30469 6.07324 3.9707 6.51074 3.7207C6.94824 3.4707 7.46777 3.3457 8.06934 3.3457C8.65527 3.3457 9.15137 3.44336 9.55762 3.63867C9.96387 3.83008 10.2725 4.10352 10.4834 4.45898C10.6943 4.81445 10.7998 5.23828 10.7998 5.73047C10.7998 6.00391 10.7549 6.27344 10.665 6.53906C10.5752 6.80469 10.4482 7.06836 10.2842 7.33008C10.124 7.58789 9.93262 7.84961 9.70996 8.11523C9.4873 8.38086 9.23926 8.65234 8.96582 8.92969L7.30176 10.7812H11.0986Z" fill="white"/>
</svg>
