<svg width="24" height="24" viewBox="0 0 24 24" fill="none" xmlns="http://www.w3.org/2000/svg">
<path d="M5 3L19 3C20.11 3 21 3.9 21 5L21 19C21 20.1 20.11 21 19 21L5 21C3.9 21 3 20.1 3 19L3 5C3 3.9 3.89 3 5 3ZM5 19L19 19L19 7L5 7L5 19ZM10.5 13C10.5 13.83 11.17 14.5 12 14.5C12.83 14.5 13.5 13.83 13.5 13C13.5 12.17 12.83 11.5 12 11.5C11.17 11.5 10.5 12.17 10.5 13ZM12 9C14.73 9 17.06 10.66 18 13C17.06 15.34 14.73 17 12 17C9.27 17 6.94 15.34 6 13C6.94 10.66 9.27 9 12 9ZM12 15.5C13.38 15.5 14.5 14.38 14.5 13C14.5 11.62 13.38 10.5 12 10.5C10.62 10.5 9.5 11.62 9.5 13C9.5 14.38 10.62 15.5 12 15.5Z" fill="#11397E"/>
</svg>
