<svg width="17" height="16" viewBox="0 0 17 16" fill="none" xmlns="http://www.w3.org/2000/svg">
<rect x="0.218262" width="16" height="16" rx="8" fill="#74767A"/>
<path d="M7.09912 7.04883H7.97217C8.28076 7.04883 8.53467 6.99609 8.73389 6.89062C8.93701 6.78125 9.0874 6.63281 9.18506 6.44531C9.28662 6.25391 9.3374 6.0332 9.3374 5.7832C9.3374 5.53711 9.29248 5.32422 9.20264 5.14453C9.11279 4.96094 8.97607 4.82031 8.79248 4.72266C8.61279 4.62109 8.38232 4.57031 8.10107 4.57031C7.87451 4.57031 7.66553 4.61523 7.47412 4.70508C7.28662 4.79492 7.13623 4.92383 7.02295 5.0918C6.91357 5.25586 6.85889 5.45312 6.85889 5.68359H5.30615C5.30615 5.22266 5.42725 4.81836 5.66943 4.4707C5.91553 4.11914 6.24756 3.84375 6.66553 3.64453C7.0835 3.44531 7.55029 3.3457 8.06592 3.3457C8.62842 3.3457 9.12061 3.43945 9.54248 3.62695C9.96826 3.81055 10.2983 4.08203 10.5327 4.44141C10.771 4.80078 10.8901 5.24609 10.8901 5.77734C10.8901 6.03125 10.8296 6.28516 10.7085 6.53906C10.5913 6.78906 10.4175 7.01562 10.187 7.21875C9.96045 7.41797 9.68115 7.58008 9.34912 7.70508C9.021 7.82617 8.64404 7.88672 8.21826 7.88672H7.09912V7.04883ZM7.09912 8.24414V7.41797H8.21826C8.69873 7.41797 9.11475 7.47461 9.46631 7.58789C9.82178 7.69727 10.1147 7.85352 10.3452 8.05664C10.5757 8.25586 10.7456 8.48828 10.855 8.75391C10.9683 9.01953 11.0249 9.30469 11.0249 9.60938C11.0249 10.0078 10.9507 10.3633 10.8022 10.6758C10.6538 10.9844 10.4448 11.2461 10.1753 11.4609C9.90967 11.6758 9.59717 11.8398 9.23779 11.9531C8.87842 12.0625 8.48975 12.1172 8.07178 12.1172C7.7085 12.1172 7.35498 12.0684 7.01123 11.9707C6.67139 11.8691 6.36475 11.7188 6.09131 11.5195C5.81787 11.3164 5.60107 11.0625 5.44092 10.7578C5.28076 10.4492 5.20068 10.0918 5.20068 9.68555H6.75342C6.75342 9.91992 6.81006 10.1289 6.92334 10.3125C7.04053 10.4961 7.20068 10.6406 7.40381 10.7461C7.61084 10.8477 7.84326 10.8984 8.10107 10.8984C8.38623 10.8984 8.63037 10.8477 8.8335 10.7461C9.04053 10.6406 9.19873 10.4922 9.30811 10.3008C9.41748 10.1055 9.47217 9.87305 9.47217 9.60352C9.47217 9.2832 9.41162 9.02344 9.29053 8.82422C9.16943 8.625 8.99561 8.47852 8.76904 8.38477C8.54639 8.29102 8.28076 8.24414 7.97217 8.24414H7.09912Z" fill="white"/>
</svg>
